<?xml version="1.0" encoding="iso-8859-1"?>
<!-- Generator: Adobe Illustrator 19.0.0, SVG Export Plug-In . SVG Version: 6.00 Build 0)  -->
<svg version="1.1" id="Capa_1" xmlns="http://www.w3.org/2000/svg" xmlns:xlink="http://www.w3.org/1999/xlink" x="0px" y="0px"
	 viewBox="0 0 512 512" style="enable-background:new 0 0 512 512;" xml:space="preserve">
<g transform="translate(1 1)">
	<polygon style="fill:#FFE100;" points="135.518,400.086 135.518,195.259 400.086,195.259 400.086,109.915 297.673,109.915 
		297.673,7.502 7.501,7.502 7.501,502.499 400.086,502.499 400.086,400.086 	"/>
	<polygon style="fill:#FFA800;" points="374.482,502.499 400.086,502.499 400.086,109.915 374.482,109.915 	"/>
	<polygon style="fill:#63D3FD;" points="135.518,400.086 502.499,400.086 502.499,195.259 135.518,195.259 	"/>
	<polygon style="fill:#3DB9F9;" points="476.896,400.086 502.499,400.086 502.499,195.259 476.896,195.259 	"/>
	<polygon style="fill:#FDCC00;" points="400.086,109.915 297.673,109.915 297.673,7.502 	"/>
	<polygon style="fill:#FFFFFF;" points="7.501,502.499 33.104,502.499 33.104,7.502 7.501,7.502 	"/>
	<path d="M400.105,118.415c-0.005,0-0.013,0-0.02,0H297.673c-4.695,0-8.501-3.806-8.501-8.501V7.502
		c0-3.438,2.071-6.538,5.248-7.854c3.177-1.316,6.832-0.589,9.265,1.843l102.075,102.075c1.747,1.557,2.847,3.824,2.847,6.349
		C408.606,114.61,404.8,118.415,400.105,118.415z M306.174,101.413h73.388l-73.388-73.388V101.413z"/>
	<path d="M502.499,408.587H135.518c-4.695,0-8.501-3.806-8.501-8.501V195.259c0-4.695,3.806-8.501,8.501-8.501h366.981
		c4.695,0,8.501,3.806,8.501,8.501v204.826C511,404.78,507.194,408.587,502.499,408.587z M144.019,391.584h349.979V203.76H144.019
		V391.584z"/>
	<path d="M400.085,511H7.501C2.806,511-1,507.193-1,502.499V7.502c0-4.695,3.806-8.501,8.501-8.501h290.171
		c4.695,0,8.501,3.806,8.501,8.501v93.912h93.911c4.695,0,8.501,3.806,8.501,8.501v85.344c0,4.695-3.806,8.501-8.501,8.501H144.019
		v187.824h256.066c4.695,0,8.501,3.806,8.501,8.501v102.413C408.586,507.193,404.78,511,400.085,511z M16.002,493.998h375.581
		v-85.411H135.518c-4.695,0-8.501-3.806-8.501-8.501V195.259c0-4.695,3.806-8.501,8.501-8.501h256.066v-68.343h-93.911
		c-4.695,0-8.501-3.806-8.501-8.501V16.002H16.002V493.998z"/>
	<path d="M237.923,374.449c-42.334,0-76.777-34.442-76.777-76.777s34.442-76.776,76.777-76.776c17.397,0,34.442,5.983,47.996,16.845
		c3.663,2.936,4.254,8.287,1.317,11.951c-2.937,3.664-8.287,4.252-11.95,1.317c-10.701-8.577-23.622-13.111-37.364-13.111
		c-32.96,0-59.775,26.814-59.775,59.774s26.814,59.775,59.775,59.775c13.743,0,26.663-4.533,37.363-13.11
		c3.663-2.934,9.014-2.347,11.951,1.316c2.936,3.663,2.347,9.014-1.316,11.951C272.366,368.466,255.321,374.449,237.923,374.449z"/>
	<path d="M374.482,306.173h-68.276c-4.695,0-8.501-3.806-8.501-8.501s3.806-8.501,8.501-8.501h68.276
		c4.695,0,8.501,3.806,8.501,8.501S379.177,306.173,374.482,306.173z"/>
	<path d="M340.344,340.311c-4.695,0-8.501-3.806-8.501-8.501v-68.276c0-4.695,3.806-8.501,8.501-8.501
		c4.695,0,8.501,3.807,8.501,8.501v68.276C348.845,336.504,345.039,340.311,340.344,340.311z"/>
	<path d="M468.361,306.173h-68.276c-4.695,0-8.501-3.806-8.501-8.501s3.806-8.501,8.501-8.501h68.276
		c4.695,0,8.501,3.806,8.501,8.501S473.055,306.173,468.361,306.173z"/>
	<path d="M434.223,340.311c-4.695,0-8.501-3.806-8.501-8.501v-68.276c0-4.695,3.806-8.501,8.501-8.501s8.501,3.807,8.501,8.501
		v68.276C442.724,336.504,438.919,340.311,434.223,340.311z"/>
</g>
<g>
</g>
<g>
</g>
<g>
</g>
<g>
</g>
<g>
</g>
<g>
</g>
<g>
</g>
<g>
</g>
<g>
</g>
<g>
</g>
<g>
</g>
<g>
</g>
<g>
</g>
<g>
</g>
<g>
</g>
</svg>
